<svg xmlns="http://www.w3.org/2000/svg" viewBox="0 0 323.87 104.18"><defs><style>.cls-1{fill:#fff;}</style></defs><g id="Layer_2" data-name="Layer 2"><g id="Layer_1-2" data-name="Layer 1"><path class="cls-1" d="M151.25,46h-3.32a.67.67,0,0,0-.67.67V79.85A14.11,14.11,0,0,1,133.12,94.1c-9.12,0-12.31-7.06-12.31-17.55V52.05A6.07,6.07,0,0,0,114.75,46h-3.3a.67.67,0,0,0-.67.67v31.6c0,19.38,10.37,24.17,19,24.17a20.79,20.79,0,0,0,18.25-10.26h.22l.53,8.37a.68.68,0,0,0,.67.63h1.67a6.26,6.26,0,0,0,6.26-6.45c-.09-2.67-.12-5.53-.12-8.6V52A6,6,0,0,0,151.25,46Z"/><path class="cls-1" d="M213.55,44.93c-18,0-22.81,15.84-22.81,26A33.05,33.05,0,0,0,191,75l.66.59h37.48a.68.68,0,0,1,.67.7c-.51,13.06-9.05,18.46-18.91,18.46a40.62,40.62,0,0,1-10.66-1.24A4.72,4.72,0,0,0,194.44,97l-.37,1.55.39.78c3.59,1.54,9.47,3.19,17.83,3.19,17,0,27.13-11.17,27.13-27.82S229.62,44.93,213.55,44.93ZM201.11,68.41l-.68-.68c.09-6.39,3-15.62,13.91-15.62,9.78,0,14.26,8.67,15.29,15.53a.67.67,0,0,1-.66.77Z"/><path class="cls-1" d="M317,92.78c-5.59,0-7.52-3.88-7.52-10.72V53a.67.67,0,0,1,.67-.67h13a.67.67,0,0,0,.67-.67h0a7,7,0,0,0-7-7h-6.74a.67.67,0,0,1-.67-.65h0a8.31,8.31,0,0,0-8.32-8.13h-.8a.67.67,0,0,0-.67.67V44a.67.67,0,0,1-.67.67h-7.21a.67.67,0,0,0-.67.68v6.29a.67.67,0,0,0,.67.67H299a.67.67,0,0,1,.67.67V82.4c0,6.5,1,11.4,3.88,14.37C306,99.5,309.73,101,314.41,101a25.89,25.89,0,0,0,8.41-1.18l.45-.68L323.14,97a4.53,4.53,0,0,0-4.74-4.26C318,92.76,317.51,92.78,317,92.78Z"/><path class="cls-1" d="M189.34,45.6a.67.67,0,0,0-.67-.67h-2.18c-6.72,0-20.81-3.62-24.43,12.17a.88.88,0,0,0,0,.16c0,2,.05,4,.05,6.14v37.29a.67.67,0,0,0,.67.67h2.05a7.2,7.2,0,0,0,7.2-7.2V72c0-1.71.39-3.29.45-4.68.47-10.8,5.69-14.69,13.46-12.88h0a2.8,2.8,0,0,0,3.42-2.72Z"/><path class="cls-1" d="M27.05,68.24a57.14,57.14,0,0,0,13-.46A2.34,2.34,0,0,0,41.46,64C35.34,56.61,32.9,46.09,37,35.23a26.09,26.09,0,0,1,14.9-15.17C72.05,12.21,91.17,26.87,91.17,46h0a.67.67,0,0,0,1.07.54,60.83,60.83,0,0,0,10.46-9.49,1.22,1.22,0,0,0,.28-1q-2.34-15.52-11.92-24.36Q78.37,0,53,0H37.25a10.79,10.79,0,0,0-10.8,10.8V67.57A.67.67,0,0,0,27.05,68.24Z"/><path class="cls-1" d="M105.81,52.35c0-.31,0-.62,0-.93A1.74,1.74,0,0,0,103,50.07c-2.68,2.14-5.64,4.28-8.85,6.36a7.16,7.16,0,0,0-2.91,3.88A29.57,29.57,0,0,1,49.35,77.73,6.29,6.29,0,0,0,45,77.17a109.34,109.34,0,0,1-16.68,2.59A4.21,4.21,0,0,0,24.43,84V92.7a11.48,11.48,0,0,0,11.48,11.48H51.23Q76.11,104.18,91,90T105.81,52.35Z"/><path class="cls-1" d="M47.37,73.72a158.64,158.64,0,0,0,25-8.57A154.4,154.4,0,0,0,91.86,55a110.21,110.21,0,0,0,13.81-10c11.53-10,16.88-20,12.89-26.93-3.51-6.08-11.09-9-24.21-8.14A.67.67,0,0,0,93.9,11a55.77,55.77,0,0,1,5.4,7.23.69.69,0,0,0,.46.27c5.42.75,7.57,2,9.36,5.15,2.31,4,.64,9.35-4,15.07A65,65,0,0,1,92.52,50,123.34,123.34,0,0,1,70.65,62.17a128.27,128.27,0,0,1-27.24,8.59,66,66,0,0,1-19,1.18c-6-.67-10.38-2.63-12.29-5.93-3.34-5.81,1.64-14.41,12-22.89a.67.67,0,0,0,.25-.52V35.82a.67.67,0,0,0-1.05-.55C5.7,47.34-3.62,60.66,1.31,69.22c3.17,5.5,11.69,8.06,23.12,7.83A106.11,106.11,0,0,0,47.37,73.72Z"/><path class="cls-1" d="M271.65,44.75c-5.93-1-14.57,1.41-20.67,4.7a13,13,0,0,0-6.8,11.43v39.63a.67.67,0,0,0,.67.67h2a7.36,7.36,0,0,0,7.36-7.36V68a14.62,14.62,0,0,1,.68-4.68,14.26,14.26,0,0,1,13.46-10.26c9.46,0,12.77,7.41,12.77,16.3v31.14a.67.67,0,0,0,.67.67h2a7.32,7.32,0,0,0,7.32-7.32V68.23C291.15,49.31,279.18,46,271.65,44.75Z"/></g></g></svg>